Coordinates
version=1
nRows=14
nColumns=24
inDegrees=yes

Units are S.I. units (second, meters, Newtons, ...)
Angles are in degrees.

endheader
time	pelvis_tilt	pelvis_list	pelvis_rotation	pelvis_tx	pelvis_ty	pelvis_tz	hip_flexion_r	hip_adduction_r	hip_rotation_r	knee_angle_r	ankle_angle_r	subtalar_angle_r	mtp_angle_r	hip_flexion_l	hip_adduction_l	hip_rotation_l	knee_angle_l	ankle_angle_l	subtalar_angle_l	mtp_angle_l	lumbar_extension	lumbar_bending	lumbar_rotation
      6.76000000	      3.47442049	     -1.23520032	     11.81146971	      0.54438001	      0.88085242	     -0.18939196	      7.09512855	      7.09549071	      0.89358220	    -17.70055884	     15.76597423	     -2.77718996	      0.00000000	     19.94976709	      2.18841486	      5.27193857	    -76.67453867	     -2.76957050	      6.17388299	      0.00000000	    -25.55320490	      2.91772327	    -11.11778050
      6.77000000	      3.37670724	     -0.96501445	     11.42150666	      0.55390375	      0.88213926	     -0.18948826	      6.14664047	      6.92253802	      1.29469749	    -17.12156670	     15.99615637	     -2.70077986	      0.00000000	     21.05371960	      2.90817576	      5.48938718	    -76.10354809	     -0.82094431	      6.56857093	      0.00000000	    -25.62523051	      2.51122526	    -10.77650412
      6.78000000	      3.20122819	     -0.62542843	     11.12771729	      0.56333260	      0.88335765	     -0.18978835	      5.25777124	      6.62548734	      1.62459992	    -16.51614924	     16.24400128	     -2.55017996	      0.00000000	     22.15288238	      3.73205137	      5.76259951	    -75.20392337	      0.76530420	      6.41252216	      0.00000000	    -25.62297489	      2.06775019	    -10.64877684
      6.79000000	      3.04335425	     -0.23175430	     10.75732712	      0.57270072	      0.88457198	     -0.18992084	      4.37084941	      6.27207338	      1.93281940	    -15.94169028	     16.49220709	     -2.39129871	      0.00000000	     23.12038452	      4.51520053	      5.91600285	    -73.96747759	      2.13400016	      5.83839693	      0.00000000	    -25.67664556	      1.51526029	    -10.43440791
      6.80000000	      2.83954466	      0.16979766	     10.46276136	      0.58200291	      0.88566620	     -0.19020130	      3.52921141	      5.88167202	      2.18796587	    -15.34598682	     16.71123325	     -2.23392806	      0.00000000	     24.05114260	      5.30824161	      6.12614494	    -72.43192512	      3.21114701	      4.82060147	      0.00000000	    -25.67609229	      0.98047531	    -10.30918326
      6.81000000	      2.62085308	      0.58179318	     10.16549541	      0.59124793	      0.88665549	     -0.19050592	      2.72488252	      5.46679434	      2.42403097	    -14.77451750	     16.92673477	     -2.06681729	      0.00000000	     24.89253891	      6.06634335	      6.32517581	    -70.58736732	      4.07884418	      3.48599254	      0.00000000	    -25.66956840	      0.43198189	    -10.17378236
      6.82000000	      2.42075372	      0.99528122	      9.84360598	      0.60044662	      0.88757941	     -0.19084906	      1.92370156	      5.03945130	      2.66693572	    -14.23024625	     17.13814773	     -1.85356979	      0.00000000	     25.59840822	      6.77253915	      6.52206856	    -68.43215248	      4.75747123	      1.94099097	      0.00000000	    -25.69344366	     -0.11606679	     -9.95383595
      6.83000000	      2.15494389	      1.37825711	      9.55333882	      0.60964430	      0.88824329	     -0.19116439	      1.23079224	      4.63751287	      2.86202621	    -13.73221749	     17.33062066	     -1.74265044	      0.00000000	     26.26942220	      7.40352214	      6.75429329	    -65.99534234	      5.35963873	      0.35114174	      0.00000000	    -25.63231842	     -0.65762599	     -9.87527324
      6.84000000	      1.95597722	      1.74284422	      9.19250349	      0.61883425	      0.88888564	     -0.19154601	      0.49374232	      4.24505740	      3.11761053	    -13.27084794	     17.52428598	     -1.53985364	      0.00000000	     26.73944530	      7.94831644	      6.98741358	    -63.25455761	      5.78405630	     -1.27406675	      0.00000000	    -25.64577202	     -1.15533498	     -9.60538366
      6.85000000	      1.74147883	      2.05865334	      8.84415895	      0.62807075	      0.88931393	     -0.19192656	     -0.19584540	      3.90078773	      3.35177067	    -12.84704286	     17.70450807	     -1.38921123	      0.00000000	     27.11259518	      8.39368703	      7.27437294	    -60.24974605	      6.12142490	     -2.77680569	      0.00000000	    -25.61964276	     -1.61721742	     -9.39374696
      6.86000000	      1.54848738	      2.32114561	      8.46880181	      0.63737473	      0.88958146	     -0.19233595	     -0.87982003	      3.60702414	      3.60518346	    -12.46055580	     17.87714658	     -1.23972886	      0.00000000	     27.34334296	      8.72747793	      7.60142138	    -56.98965197	      6.34144664	     -4.12098200	      0.00000000	    -25.59143135	     -2.01232512	     -9.14968659
      6.87000000	      1.37191978	      2.52034882	      8.08365199	      0.64677414	      0.88966562	     -0.19278098	     -1.55964885	      3.37529954	      3.88217835	    -12.10525618	     18.04249304	     -1.10284608	      0.00000000	     27.44129081	      8.95061446	      7.99371576	    -53.49772947	      6.42287362	     -5.27362100	      0.00000000	    -25.54382746	     -2.33461705	     -8.88957623
      6.88000000	      1.24997854	      2.66295915	      7.67341542	      0.65629858	      0.88961712	     -0.19322952	     -2.28162285	      3.20356730	      4.17992383	    -11.77494208	     18.19530683	     -0.97730182	      0.00000000	     27.36105148	      9.06058066	      8.44638832	    -49.78742017	      6.36167222	     -6.21790003	      0.00000000	    -25.52731354	     -2.59393567	     -8.58732194
      6.89000000	      1.14625704	      2.72826023	      7.25924200	      0.66594717	      0.88936455	     -0.19370914	     -3.01305893	      3.10859039	      4.50891841	    -11.45748406	     18.33604105	     -0.87433375	      0.00000000	     27.15744779	      9.05061067	      8.97202897	    -45.89803496	      6.13620499	     -6.98399978	      0.00000000	    -25.49407526	     -2.76144829	     -8.26789477
